<svg width="126" height="125" viewBox="0 0 126 125" fill="none" xmlns="http://www.w3.org/2000/svg">
<g id="solar:login-bold">
<g id="Group">
<path id="Vector" fill-rule="evenodd" clip-rule="evenodd" d="M56.9844 42.1614C56.2529 42.8939 55.842 43.8867 55.842 44.9219C55.842 45.957 56.2529 46.9498 56.9844 47.6823L65.9427 56.6406H23.2865C22.2505 56.6406 21.2569 57.0522 20.5243 57.7847C19.7918 58.5173 19.3802 59.5109 19.3802 60.5469C19.3802 61.5829 19.7918 62.5764 20.5243 63.309C21.2569 64.0416 22.2505 64.4531 23.2865 64.4531H65.9427L56.9844 73.4114C56.6006 73.7691 56.2928 74.2003 56.0793 74.6795C55.8658 75.1586 55.751 75.6759 55.7417 76.2004C55.7325 76.7249 55.8289 77.2459 56.0254 77.7323C56.2219 78.2187 56.5143 78.6605 56.8852 79.0314C57.2562 79.4024 57.698 79.6948 58.1844 79.8912C58.6708 80.0877 59.1918 80.1842 59.7163 80.1749C60.2408 80.1657 60.758 80.0509 61.2372 79.8374C61.7164 79.6239 62.1476 79.3161 62.5052 78.9323L78.1302 63.3073C78.8617 62.5748 79.2726 61.582 79.2726 60.5469C79.2726 59.5117 78.8617 58.5189 78.1302 57.7864L62.5052 42.1614C61.7728 41.4299 60.78 41.019 59.7448 41.019C58.7096 41.019 57.7168 41.4299 56.9844 42.1614Z" fill="#0B9991"/>
<path id="Vector_2" d="M64.9531 30.6094C64.9531 32.9427 66.3802 34.9844 68.0313 36.6355L83.6563 52.2605C84.7445 53.3486 85.6077 54.6405 86.1966 56.0623C86.7855 57.4841 87.0887 59.008 87.0887 60.5469C87.0887 62.0859 86.7855 63.6097 86.1966 65.0315C85.6077 66.4533 84.7445 67.7452 83.6563 68.8334L68.0313 84.4584C66.3802 86.1094 64.9531 88.1511 64.9531 90.4844V102.214C76.0038 102.214 86.6019 97.8237 94.4159 90.0097C102.23 82.1957 106.62 71.5976 106.62 60.5469C106.62 49.4962 102.23 38.8981 94.4159 31.0841C86.6019 23.2701 76.0038 18.8802 64.9531 18.8802V30.6094Z" fill="#0B9991"/>
</g>
</g>
</svg>
