<svg width="126" height="125" viewBox="0 0 126 125" fill="none" xmlns="http://www.w3.org/2000/svg">
<g id="mdi:register">
<path id="Vector" d="M78.625 72.9167C64.7188 72.9167 36.9583 79.8438 36.9583 93.75V104.167H120.292V93.75C120.292 79.8438 92.5313 72.9167 78.625 72.9167ZM31.75 52.0834V36.4584H21.3333V52.0834H5.70834V62.5H21.3333V78.125H31.75V62.5H47.375V52.0834M78.625 62.5C84.1504 62.5 89.4494 60.3051 93.3564 56.3981C97.2634 52.4911 99.4583 47.1921 99.4583 41.6667C99.4583 36.1414 97.2634 30.8423 93.3564 26.9353C89.4494 23.0283 84.1504 20.8334 78.625 20.8334C73.0997 20.8334 67.8006 23.0283 63.8936 26.9353C59.9866 30.8423 57.7917 36.1414 57.7917 41.6667C57.7917 47.1921 59.9866 52.4911 63.8936 56.3981C67.8006 60.3051 73.0997 62.5 78.625 62.5Z" fill="#0B9991"/>
</g>
</svg>
