<svg width="20" height="20" viewBox="0 0 20 20" fill="none" xmlns="http://www.w3.org/2000/svg">
<g id="solar:login-bold" clip-path="url(#clip0_37_2070)">
<g id="Group">
<path id="Vector" fill-rule="evenodd" clip-rule="evenodd" d="M14.8902 5.56132C14.7225 5.73712 14.6283 5.97543 14.6283 6.2239C14.6283 6.47237 14.7225 6.71068 14.8902 6.88648L16.944 9.03675L7.16481 9.03675C6.9273 9.03675 6.69952 9.13553 6.53158 9.31137C6.36364 9.48721 6.26929 9.72569 6.26929 9.97436C6.26929 10.223 6.36364 10.4615 6.53158 10.6374C6.69952 10.8132 6.9273 10.912 7.16481 10.912L16.944 10.912L14.8902 13.0622C14.8022 13.1481 14.7317 13.2516 14.6827 13.3666C14.6338 13.4816 14.6075 13.6058 14.6053 13.7317C14.6032 13.8576 14.6253 13.9826 14.6704 14.0994C14.7154 14.2161 14.7824 14.3222 14.8675 14.4112C14.9525 14.5002 15.0538 14.5704 15.1653 14.6176C15.2768 14.6647 15.3963 14.6879 15.5165 14.6857C15.6368 14.6835 15.7553 14.6559 15.8652 14.6047C15.975 14.5534 16.0739 14.4795 16.1559 14.3874L19.738 10.6369C19.9057 10.4611 19.9999 10.2228 19.9999 9.97436C19.9999 9.72589 19.9057 9.48758 19.738 9.31178L16.1559 5.56132C15.988 5.38573 15.7604 5.28711 15.5231 5.28711C15.2857 5.28711 15.0581 5.38573 14.8902 5.56132Z" fill="#0B9991"/>
<path id="Vector_2" d="M9.552 14.7844C9.552 14.2243 9.22484 13.7342 8.84633 13.3379L5.26422 11.9878C5.01475 11.7266 4.81685 11.4165 4.68184 11.0752C4.54682 10.7339 4.47733 10.3682 4.47733 9.99876C4.47733 9.62937 4.54682 9.2636 4.68184 8.92233C4.81685 8.58105 5.01475 8.27097 5.26422 8.00977L8.84633 6.6596C9.22484 6.2633 9.552 5.77324 9.552 5.21318V-0.00247003C7.01858 -0.00247003 4.58892 1.05123 2.79752 2.92682C1.00612 4.80242 -0.000277826 7.34627 -0.000277826 9.99876C-0.000277826 12.6513 1.00612 15.1951 2.79752 17.0707C4.58892 18.9463 7.01858 20 9.552 20V14.7844Z" fill="#0B9991"/>
</g>
</g>
<defs>
<clipPath id="clip0_37_2070">
<rect width="20" height="20" fill="white"/>
</clipPath>
</defs>
</svg>
